<svg version="1.2" baseProfile="tiny-ps" xmlns="http://www.w3.org/2000/svg" viewBox="0 0 584 584" width="584" height="584"><title>Fairmile Partners</title><path fill="#f0f2f4" d="m0.2 292.3l0.3 292.2 0.5-583.5 583.5-0.5-584.5-0.5z"/><path fill="#203056" d="m1 292.5v291.5h583v-583h-583z"/><path fill="#f0f2f4" d="m292 230.3c0 2.6 0.2 2.7 5.3 2.7 2.9 0 6.1 0.6 7.2 1.4 1.9 1.4 2 2.6 2 47.1 0 44.5-0.1 45.7-2 47.1-1.1 0.8-4.3 1.4-7.3 1.4-5.1 0-5.2 0-5.2 3v3l45-0.5c0-5.4-0.2-5.5-6.2-5.8-5.5-0.2-6.4-0.5-7.5-2.7-1-1.9-1.3-13.2-1.3-46.8v-44.2c6.6-1.8 11.9-2.3 16-2.2 4.1 0 8.9 0.5 10.5 1.2 1.6 0.6 4.5 2.3 6.4 3.8 1.9 1.5 4.3 4.5 5.3 6.7 1 2.2 1.8 6.5 1.8 9.5 0 3-0.5 7.1-1.1 9-0.7 1.9-2.2 5-3.5 6.7-1.3 1.8-4.1 4.1-6.2 5.2-2 1-5.5 2.2-7.7 2.5-2.2 0.4-5.8 0.3-8-0.3-2.2-0.5-4.3-0.6-4.7-0.3-0.4 0.4-0.3 1.8 0.1 3.2 0.6 2.2 1.5 2.6 6.2 3.1 3 0.3 7.9 0.3 10.9-0.1 3-0.4 8-1.9 11-3.4 3-1.5 7.2-4.4 9.3-6.4 2.1-2 4.9-5.5 6.2-7.7 1.3-2.2 2.9-6.3 3.5-9 0.8-3.6 0.9-6.6 0.1-10.5-0.8-4-2.1-6.7-4.9-10-2.3-2.7-6-5.5-9.3-7-5.4-2.5-5.4-2.5-38.6-2.5h-33.3z"/><path fill="#f0f2f4" d="m204 230.3c0 2.6 0.2 2.7 5.5 2.7 4.2 0 6 0.5 7.5 2 1.9 1.9 2 3.3 2 45.7 0 33.2-0.3 44.4-1.3 46.3-1.1 2.2-2 2.5-7.5 2.7-6 0.3-6.2 0.4-6.2 3v2.8h45c0-5.4-0.2-5.5-5.3-5.5-2.9 0-6.1-0.6-7.2-1.4-1.9-1.3-2-2.7-2.3-23l-0.2-21.6c24 0.4 31.4 0.9 32 1.5 0.6 0.6 1.3 3 1.6 5.5 0.3 2.5 0.7 5.5 1 6.7 0.3 1.7 1.1 2.3 2.9 2.3h2.5v-36c-5.2 0.5-5.6 1-6.2 5.5-0.4 2.7-1.3 5.4-1.8 6-0.6 0.6-8.1 1.2-16.6 1.5l-15.6 0.5c0.5-32 1-41.6 1.5-42 0.4-0.4 6.9-0.7 14.5-0.7 7.5-0.1 16 0.4 18.7 1.1 4.7 1.1 5 1.4 5.7 4.9 0.4 2 0.8 5.2 0.8 6.9 0 2.9 0.3 3.3 2.8 3.3 2.7 0 2.7-0.1 3.5-8.2 0.4-4.6 1-10 1.5-12.1l0.7-3.8-79.5 0.6z"/></svg>
